<svg viewBox="0 0 1200 860" width="1200" height="860" xmlns="http://www.w3.org/2000/svg" font-family="Inter, 'Segoe UI', system-ui, sans-serif">
  <defs>
    <linearGradient id="heroGrad" x1="0" y1="0" x2="1" y2="1">
      <stop offset="0" stop-color="#1E5BC6"/>
      <stop offset="1" stop-color="#0E3C8C"/>
    </linearGradient>
    <linearGradient id="navyGrad" x1="0" y1="0" x2="0" y2="1">
      <stop offset="0" stop-color="#142a52"/>
      <stop offset="1" stop-color="#0e2143"/>
    </linearGradient>
    <radialGradient id="heroGlow" cx="0.3" cy="0.25" r="0.9">
      <stop offset="0" stop-color="#ffffff" stop-opacity="0.18"/>
      <stop offset="1" stop-color="#ffffff" stop-opacity="0"/>
    </radialGradient>
    <linearGradient id="sealGrad" x1="0" y1="0" x2="1" y2="1">
      <stop offset="0" stop-color="#2a6fe0"/>
      <stop offset="1" stop-color="#1E5BC6"/>
    </linearGradient>
    <filter id="softShadow" x="-20%" y="-20%" width="140%" height="140%">
      <feDropShadow dx="0" dy="6" stdDeviation="12" flood-color="#0e3c8c" flood-opacity="0.10"/>
    </filter>
    <filter id="cardShadow" x="-20%" y="-20%" width="140%" height="140%">
      <feDropShadow dx="0" dy="4" stdDeviation="9" flood-color="#1b2b4a" flood-opacity="0.10"/>
    </filter>
  </defs>

  <!-- page background -->
  <rect x="0" y="0" width="1200" height="860" fill="#f4f6fa"/>

  <!-- ===== top signal bar ===== -->
  <rect x="0" y="0" width="1200" height="36" fill="#1E5BC6"/>
  <g transform="translate(420,18)" stroke="#ffffff" stroke-width="1.7" fill="none" stroke-linecap="round" stroke-linejoin="round">
    <path d="M0,-6 a2.2,2.2 0 0 1 2.2,-2.2 h2 a1.5,1.5 0 0 1 1.5,1.2 l0.5,2.4 a1.5,1.5 0 0 1 -0.5,1.5 l-1,0.9 a9,9 0 0 0 4.2,4.2 l0.9,-1 a1.5,1.5 0 0 1 1.5,-0.5 l2.4,0.5 a1.5,1.5 0 0 1 1.2,1.5 v2 a2.2,2.2 0 0 1 -2.2,2.2 A15,15 0 0 1 0,-6 z"/>
  </g>
  <text x="448" y="23" fill="#ffffff" font-size="13.5" font-weight="600">Heizung kaputt?</text>
  <text x="560" y="23" fill="#cfe0ff" font-size="13.5" font-weight="500">24h-Notdienst:</text>
  <text x="665" y="23" fill="#ffffff" font-size="13.5" font-weight="700" letter-spacing="0.3">0231 / 99 88 77</text>

  <!-- ===== header ===== -->
  <rect x="0" y="36" width="1200" height="78" fill="#ffffff"/>
  <rect x="0" y="113" width="1200" height="1" fill="#e6eaf2"/>
  <!-- wordmark mark -->
  <rect x="64" y="56" width="38" height="38" rx="9" fill="#1E5BC6"/>
  <g transform="translate(74,66)" stroke="#ffffff" stroke-width="1.8" fill="none" stroke-linecap="round" stroke-linejoin="round">
    <path d="M14,3 a4.5,4.5 0 0 0 -6,5.6 l-6.5,6.5 a1.6,1.6 0 0 0 2.3,2.3 l6.5,-6.5 A4.5,4.5 0 0 0 16,4 l-2.6,2.6 -1.9,-0.5 -0.5,-1.9 z"/>
  </g>
  <text x="118" y="73" fill="#16213a" font-size="22" font-weight="800" letter-spacing="0.2">Meisterbetrieb Krüger</text>
  <text x="118" y="93" fill="#6b7793" font-size="12.5" font-weight="500" letter-spacing="1.2">SANITÄR · HEIZUNG · KLIMA</text>

  <!-- nav -->
  <text x="760" y="80" fill="#3b4a66" font-size="14" font-weight="600">Leistungen</text>
  <text x="858" y="80" fill="#3b4a66" font-size="14" font-weight="600">Über uns</text>
  <text x="942" y="80" fill="#3b4a66" font-size="14" font-weight="600">Referenzen</text>

  <!-- meisterbetrieb seal -->
  <g transform="translate(1100,75)">
    <circle r="32" fill="url(#sealGrad)"/>
    <circle r="32" fill="none" stroke="#ffffff" stroke-width="1.4" stroke-dasharray="2 3" opacity="0.55"/>
    <circle r="25" fill="none" stroke="#ffffff" stroke-width="1" opacity="0.5"/>
    <text x="0" y="-3" fill="#ffffff" font-size="8.5" font-weight="800" text-anchor="middle" letter-spacing="0.5">MEISTER</text>
    <text x="0" y="8" fill="#ffffff" font-size="8.5" font-weight="800" text-anchor="middle" letter-spacing="0.5">BETRIEB</text>
    <path d="M-9,13 h18" stroke="#ffffff" stroke-width="1" opacity="0.6"/>
  </g>

  <!-- ===== hero ===== -->
  <g filter="url(#softShadow)">
    <rect x="64" y="138" width="1072" height="262" rx="16" fill="#ffffff"/>
  </g>
  <!-- left blue placeholder -->
  <clipPath id="heroClip"><rect x="64" y="138" width="500" height="262" rx="16"/></clipPath>
  <g clip-path="url(#heroClip)">
    <rect x="64" y="138" width="500" height="262" fill="url(#heroGrad)"/>
    <rect x="64" y="138" width="500" height="262" fill="url(#heroGlow)"/>
    <circle cx="500" cy="190" r="120" fill="#ffffff" opacity="0.06"/>
    <circle cx="130" cy="360" r="90" fill="#ffffff" opacity="0.05"/>
    <!-- abstract heating unit -->
    <rect x="120" y="210" width="150" height="120" rx="12" fill="#ffffff" opacity="0.12"/>
    <g stroke="#ffffff" stroke-width="1.6" opacity="0.6" fill="none" stroke-linecap="round">
      <line x1="138" y1="232" x2="252" y2="232"/>
      <line x1="138" y1="252" x2="252" y2="252"/>
      <line x1="138" y1="272" x2="252" y2="272"/>
      <line x1="138" y1="292" x2="252" y2="292"/>
    </g>
    <line x1="160" y1="330" x2="160" y2="350" stroke="#ffffff" stroke-width="2" opacity="0.4"/>
    <line x1="230" y1="330" x2="230" y2="350" stroke="#ffffff" stroke-width="2" opacity="0.4"/>
    <!-- big wrench icon -->
    <g transform="translate(360,250)" stroke="#ffffff" stroke-width="3.4" fill="none" stroke-linecap="round" stroke-linejoin="round" opacity="0.92">
      <path d="M52,4 a18,18 0 0 0 -23,22 L-6,61 a6,6 0 0 0 8.5,8.5 L37,34 A18,18 0 0 0 60,11 L46,25 l-9,-2.5 -2.5,-9 z"/>
    </g>
  </g>

  <!-- right hero text -->
  <text x="596" y="195" fill="#16213a" font-size="30" font-weight="800">Ihr zuverlässiger Partner</text>
  <text x="596" y="232" fill="#16213a" font-size="30" font-weight="800">für <tspan fill="#1E5BC6">Heizung &amp; Bad</tspan> in Dortmund</text>
  <text x="596" y="270" fill="#5a6883" font-size="15" font-weight="500">Festpreise · Schnelle Termine · Über 20 Jahre Erfahrung</text>

  <g filter="url(#cardShadow)">
    <rect x="596" y="300" width="290" height="52" rx="10" fill="#1E5BC6"/>
  </g>
  <text x="741" y="332" fill="#ffffff" font-size="15.5" font-weight="700" text-anchor="middle">Kostenloses Angebot anfragen</text>
  <g transform="translate(840,318)" stroke="#ffffff" stroke-width="2" fill="none" stroke-linecap="round" stroke-linejoin="round">
    <line x1="0" y1="9" x2="14" y2="9"/><path d="M8,3 l6,6 -6,6"/>
  </g>
  <!-- small trust ticks under button -->
  <g transform="translate(596,372)" stroke="#1E5BC6" stroke-width="2" fill="none" stroke-linecap="round" stroke-linejoin="round">
    <path d="M0,4 l3,3 5,-6"/>
  </g>
  <text x="612" y="377" fill="#5a6883" font-size="12.5">Kostenlos &amp; unverbindlich · Antwort innerhalb 24 Std.</text>

  <!-- ===== services grid ===== -->
  <g font-family="Inter, 'Segoe UI', system-ui, sans-serif">
    <!-- card 1 -->
    <g filter="url(#cardShadow)"><rect x="64" y="420" width="346" height="146" rx="14" fill="#ffffff"/></g>
    <rect x="84" y="440" width="44" height="44" rx="11" fill="#eaf1fd"/>
    <g transform="translate(95,451)" stroke="#1E5BC6" stroke-width="1.9" fill="none" stroke-linecap="round" stroke-linejoin="round">
      <path d="M11,2 C6,7 8,11 8,13 a3,3 0 1 0 6,0 c0,-3 -1,-6 -3,-11 z"/>
    </g>
    <text x="140" y="458" fill="#16213a" font-size="16.5" font-weight="700">Heizungsmodernisierung</text>
    <text x="84" y="510" fill="#5a6883" font-size="13.5">Neue, effiziente Heizung – von der</text>
    <text x="84" y="530" fill="#5a6883" font-size="13.5">Beratung bis zur Wärmepumpe.</text>
    <text x="84" y="552" fill="#1E5BC6" font-size="13" font-weight="600">Mehr erfahren →</text>

    <!-- card 2 -->
    <g filter="url(#cardShadow)"><rect x="427" y="420" width="346" height="146" rx="14" fill="#ffffff"/></g>
    <rect x="447" y="440" width="44" height="44" rx="11" fill="#eaf1fd"/>
    <g transform="translate(458,451)" stroke="#1E5BC6" stroke-width="1.9" fill="none" stroke-linecap="round" stroke-linejoin="round">
      <path d="M2,11 h18 v3 a6,6 0 0 1 -6,6 H8 a6,6 0 0 1 -6,-6 z"/>
      <path d="M6,11 V5 a3,3 0 0 1 6,0"/><line x1="5" y1="21" x2="4" y2="23"/><line x1="17" y1="21" x2="18" y2="23"/>
    </g>
    <text x="503" y="458" fill="#16213a" font-size="16.5" font-weight="700">Badsanierung</text>
    <text x="447" y="510" fill="#5a6883" font-size="13.5">Vom Konzept bis zur Fliese – Ihr</text>
    <text x="447" y="530" fill="#5a6883" font-size="13.5">Traumbad aus einer Hand.</text>
    <text x="447" y="552" fill="#1E5BC6" font-size="13" font-weight="600">Mehr erfahren →</text>

    <!-- card 3 -->
    <g filter="url(#cardShadow)"><rect x="790" y="420" width="346" height="146" rx="14" fill="#ffffff"/></g>
    <rect x="810" y="440" width="44" height="44" rx="11" fill="#fdecec"/>
    <g transform="translate(821,451)" stroke="#d23b3b" stroke-width="1.9" fill="none" stroke-linecap="round" stroke-linejoin="round">
      <circle cx="11" cy="11" r="9"/><path d="M11,6 v5 l3.5,2.5"/>
    </g>
    <text x="866" y="458" fill="#16213a" font-size="16.5" font-weight="700">24h-Notdienst</text>
    <text x="810" y="510" fill="#5a6883" font-size="13.5">Rohrbruch oder Heizungsausfall?</text>
    <text x="810" y="530" fill="#5a6883" font-size="13.5">Wir sind rund um die Uhr für Sie da.</text>
    <text x="810" y="552" fill="#d23b3b" font-size="13" font-weight="600">Jetzt anrufen →</text>
  </g>

  <!-- ===== trust strip ===== -->
  <rect x="64" y="586" width="1072" height="86" rx="14" fill="#0e3c8c"/>
  <rect x="64" y="586" width="1072" height="86" rx="14" fill="url(#heroGlow)"/>
  <g text-anchor="middle">
    <text x="244" y="626" fill="#ffffff" font-size="28" font-weight="800">20+</text>
    <text x="244" y="648" fill="#bcd0f5" font-size="13" font-weight="500">Jahre Erfahrung</text>
    <text x="600" y="626" fill="#ffffff" font-size="28" font-weight="800">1.500+</text>
    <text x="600" y="648" fill="#bcd0f5" font-size="13" font-weight="500">Aufträge</text>
    <text x="956" y="626" fill="#ffffff" font-size="28" font-weight="800">Meisterbetrieb</text>
    <text x="956" y="648" fill="#bcd0f5" font-size="13" font-weight="500">geprüfte Qualität</text>
  </g>
  <line x1="422" y1="606" x2="422" y2="652" stroke="#ffffff" stroke-width="1" opacity="0.2"/>
  <line x1="778" y1="606" x2="778" y2="652" stroke="#ffffff" stroke-width="1" opacity="0.2"/>

  <!-- ===== testimonial + form row ===== -->
  <!-- testimonial card -->
  <g filter="url(#cardShadow)"><rect x="64" y="692" width="346" height="124" rx="14" fill="#ffffff"/></g>
  <g transform="translate(84,712)">
    <!-- 5 amber stars -->
    <g fill="#f5a623" transform="translate(0,0)">
      <path d="M9,0 l2.5,5.2 5.7,0.7 -4.2,3.9 1.1,5.6 -5.1,-2.8 -5.1,2.8 1.1,-5.6 -4.2,-3.9 5.7,-0.7 z" transform="scale(0.62)"/>
      <path d="M9,0 l2.5,5.2 5.7,0.7 -4.2,3.9 1.1,5.6 -5.1,-2.8 -5.1,2.8 1.1,-5.6 -4.2,-3.9 5.7,-0.7 z" transform="translate(17.5,0) scale(0.62)"/>
      <path d="M9,0 l2.5,5.2 5.7,0.7 -4.2,3.9 1.1,5.6 -5.1,-2.8 -5.1,2.8 1.1,-5.6 -4.2,-3.9 5.7,-0.7 z" transform="translate(35,0) scale(0.62)"/>
      <path d="M9,0 l2.5,5.2 5.7,0.7 -4.2,3.9 1.1,5.6 -5.1,-2.8 -5.1,2.8 1.1,-5.6 -4.2,-3.9 5.7,-0.7 z" transform="translate(52.5,0) scale(0.62)"/>
      <path d="M9,0 l2.5,5.2 5.7,0.7 -4.2,3.9 1.1,5.6 -5.1,-2.8 -5.1,2.8 1.1,-5.6 -4.2,-3.9 5.7,-0.7 z" transform="translate(70,0) scale(0.62)"/>
    </g>
  </g>
  <text x="84" y="762" fill="#16213a" font-size="18" font-weight="700">„Schnell, sauber, fairer Preis.“</text>
  <text x="84" y="792" fill="#5a6883" font-size="13.5">— Familie Wagner, Dortmund</text>

  <!-- form panel -->
  <rect x="427" y="692" width="709" height="124" rx="14" fill="#eef1f6" stroke="#e0e5ee" stroke-width="1"/>
  <text x="451" y="722" fill="#16213a" font-size="17" font-weight="700">Angebot anfragen</text>
  <rect x="624" y="708" width="92" height="20" rx="10" fill="#dbe6fb"/>
  <text x="670" y="722" fill="#1E5BC6" font-size="11.5" font-weight="700" text-anchor="middle">Schritt 1 von 3</text>
  <!-- progress -->
  <rect x="1006" y="716" width="106" height="5" rx="2.5" fill="#d3dbe8"/>
  <rect x="1006" y="716" width="36" height="5" rx="2.5" fill="#1E5BC6"/>

  <!-- field: Leistung dropdown -->
  <text x="451" y="752" fill="#6b7793" font-size="11.5" font-weight="600">LEISTUNG</text>
  <rect x="451" y="758" width="200" height="38" rx="9" fill="#ffffff" stroke="#d3dbe8" stroke-width="1"/>
  <text x="466" y="782" fill="#3b4a66" font-size="13.5">Heizung wählen…</text>
  <g transform="translate(626,772)" stroke="#6b7793" stroke-width="1.6" fill="none" stroke-linecap="round" stroke-linejoin="round"><path d="M0,0 l4,4 4,-4"/></g>

  <!-- field: Beschreibung -->
  <text x="667" y="752" fill="#6b7793" font-size="11.5" font-weight="600">BESCHREIBUNG</text>
  <rect x="667" y="758" width="200" height="38" rx="9" fill="#ffffff" stroke="#d3dbe8" stroke-width="1"/>
  <text x="682" y="782" fill="#9aa6bd" font-size="13.5">Kurz beschreiben…</text>

  <!-- field: Foto hochladen -->
  <text x="883" y="752" fill="#6b7793" font-size="11.5" font-weight="600">FOTO</text>
  <rect x="883" y="758" width="120" height="38" rx="9" fill="#ffffff" stroke="#aebfe0" stroke-width="1.2" stroke-dasharray="4 3"/>
  <g transform="translate(897,769)" stroke="#1E5BC6" stroke-width="1.7" fill="none" stroke-linecap="round" stroke-linejoin="round">
    <path d="M0,11 v3 a1.5,1.5 0 0 0 1.5,1.5 h11 a1.5,1.5 0 0 0 1.5,-1.5 v-3"/><path d="M7,12 V2"/><path d="M3,6 l4,-4 4,4"/>
  </g>
  <text x="918" y="782" fill="#1E5BC6" font-size="12.5" font-weight="600">hochladen</text>

  <!-- field: PLZ + next button -->
  <text x="1019" y="752" fill="#6b7793" font-size="11.5" font-weight="600">PLZ</text>
  <rect x="1019" y="758" width="93" height="38" rx="9" fill="#ffffff" stroke="#d3dbe8" stroke-width="1"/>
  <text x="1033" y="782" fill="#3b4a66" font-size="13.5">44135</text>

  <!-- ===== navy footer ===== -->
  <rect x="0" y="816" width="1200" height="44" fill="url(#navyGrad)"/>
  <text x="64" y="843" fill="#cdd8ee" font-size="12.5">Meisterbetrieb Krüger · Hafenstraße 24, 44135 Dortmund · Tel. 0231 / 99 88 77</text>
  <text x="980" y="843" fill="#9fb2d6" font-size="12.5">Impressum</text>
  <text x="1064" y="843" fill="#9fb2d6" font-size="12.5">Datenschutz</text>
  <circle cx="1052" cy="839" r="1.5" fill="#5e76a4"/>
</svg>