<svg viewBox="0 0 1200 860" width="1200" height="860" xmlns="http://www.w3.org/2000/svg" font-family="Inter, 'Segoe UI', system-ui, sans-serif">
  <defs>
    <linearGradient id="heroGrad" x1="0" y1="0" x2="1" y2="1">
      <stop offset="0" stop-color="#2b2436"/>
      <stop offset="0.55" stop-color="#3a2f3f"/>
      <stop offset="1" stop-color="#4a3526"/>
    </linearGradient>
    <linearGradient id="creamGrad" x1="0" y1="0" x2="0" y2="1">
      <stop offset="0" stop-color="#fbf3e2"/>
      <stop offset="1" stop-color="#f3e3c4"/>
    </linearGradient>
    <linearGradient id="creamGrad2" x1="0" y1="0" x2="1" y2="1">
      <stop offset="0" stop-color="#fdf6e9"/>
      <stop offset="1" stop-color="#f0e0bf"/>
    </linearGradient>
    <linearGradient id="footerGrad" x1="0" y1="0" x2="1" y2="1">
      <stop offset="0" stop-color="#3a1f33"/>
      <stop offset="1" stop-color="#2c1626"/>
    </linearGradient>
    <radialGradient id="glowGrad" cx="0.5" cy="0.5" r="0.5">
      <stop offset="0" stop-color="#D99A1C" stop-opacity="0.32"/>
      <stop offset="1" stop-color="#D99A1C" stop-opacity="0"/>
    </radialGradient>
    <linearGradient id="searchGrad" x1="0" y1="0" x2="0" y2="1">
      <stop offset="0" stop-color="#ffffff"/>
      <stop offset="1" stop-color="#faf5ec"/>
    </linearGradient>
    <filter id="softShadow" x="-20%" y="-20%" width="140%" height="140%">
      <feDropShadow dx="0" dy="4" stdDeviation="8" flood-color="#3a1f1a" flood-opacity="0.12"/>
    </filter>
    <filter id="cardShadow" x="-20%" y="-20%" width="140%" height="150%">
      <feDropShadow dx="0" dy="6" stdDeviation="10" flood-color="#5a3a1a" flood-opacity="0.14"/>
    </filter>
  </defs>

  <!-- Page background -->
  <rect x="0" y="0" width="1200" height="860" fill="#fcf8f0"/>

  <!-- ===== Top utility bar ===== -->
  <rect x="0" y="0" width="1200" height="38" fill="#A8761A"/>
  <rect x="0" y="0" width="1200" height="38" fill="#D99A1C" opacity="0.18"/>
  <!-- truck icon -->
  <g transform="translate(40,12)" stroke="#fdf0d6" stroke-width="1.6" fill="none" stroke-linecap="round" stroke-linejoin="round">
    <rect x="0" y="2" width="10" height="9" rx="1"/>
    <path d="M10 5h4l3 3v3h-7z"/>
    <circle cx="4" cy="13" r="1.6" fill="#fdf0d6" stroke="none"/>
    <circle cx="14" cy="13" r="1.6" fill="#fdf0d6" stroke="none"/>
  </g>
  <text x="68" y="24" font-size="13" fill="#fdf3df">Kostenloser Versand ab 49 € · Lieferung in ganz Deutschland</text>

  <text x="980" y="24" font-size="13" fill="#fdf3df" font-weight="600">DE</text>
  <text x="1004" y="24" font-size="13" fill="#fdf3df" opacity="0.55">|</text>
  <text x="1014" y="24" font-size="13" fill="#fdf3df" opacity="0.75">فارسی</text>
  <!-- cart icon + badge -->
  <g transform="translate(1110,11)" stroke="#fdf3df" stroke-width="1.7" fill="none" stroke-linecap="round" stroke-linejoin="round">
    <path d="M0 1h3l2 11h11l2-8H6"/>
    <circle cx="7" cy="16" r="1.4" fill="#fdf3df" stroke="none"/>
    <circle cx="15" cy="16" r="1.4" fill="#fdf3df" stroke="none"/>
  </g>
  <circle cx="1135" cy="13" r="8" fill="#fcf8f0"/>
  <text x="1135" y="17" font-size="11" font-weight="700" fill="#A8761A" text-anchor="middle">3</text>

  <!-- ===== Header ===== -->
  <rect x="0" y="38" width="1200" height="92" fill="#ffffff"/>
  <line x1="0" y1="130" x2="1200" y2="130" stroke="#efe6d4" stroke-width="1"/>

  <!-- Logo -->
  <g transform="translate(40,70)">
    <!-- rose/saffron icon -->
    <g transform="translate(0,2)">
      <circle cx="14" cy="14" r="14" fill="#fbf1dd"/>
      <path d="M14 7c2.4 1.4 3.6 3.6 3.6 6.2 0 2.4-1.6 4.4-3.6 5.2-2-0.8-3.6-2.8-3.6-5.2C10.4 10.6 11.6 8.4 14 7z" fill="#D99A1C"/>
      <path d="M14 9.5c1.2 0.9 1.9 2.1 1.9 3.5 0 1.4-0.8 2.6-1.9 3.2-1.1-0.6-1.9-1.8-1.9-3.2 0-1.4 0.7-2.6 1.9-3.5z" fill="#b06a2c"/>
      <path d="M8 15c-1.6 1.6-1.4 4.6-1.4 4.6s3-0.2 4.6-1.8" stroke="#c98a3a" stroke-width="1.4" fill="none" stroke-linecap="round"/>
    </g>
    <text x="40" y="22" font-family="Georgia, 'Times New Roman', serif" font-size="27" font-weight="700" fill="#3a1f33">Saffron</text>
    <text x="143" y="22" font-family="Georgia, 'Times New Roman', serif" font-size="27" font-style="italic" fill="#D99A1C"> &amp; Rose</text>
  </g>

  <!-- Search bar -->
  <g filter="url(#softShadow)">
    <rect x="330" y="68" width="520" height="44" rx="22" fill="url(#searchGrad)" stroke="#e8dcc4" stroke-width="1"/>
  </g>
  <g transform="translate(352,82)" stroke="#b89a5a" stroke-width="1.8" fill="none" stroke-linecap="round">
    <circle cx="7" cy="7" r="6"/>
    <line x1="11.5" y1="11.5" x2="16" y2="16"/>
  </g>
  <text x="382" y="95" font-size="14.5" fill="#9a8a6a">Safran, Tee, Süßigkeiten suchen…</text>
  <g transform="translate(800,80)">
    <rect x="0" y="0" width="34" height="20" rx="10" fill="#D99A1C" opacity="0.14"/>
    <g transform="translate(9,4)" stroke="#A8761A" stroke-width="1.6" fill="none" stroke-linecap="round">
      <circle cx="6" cy="6" r="5"/>
      <line x1="9.5" y1="9.5" x2="13" y2="13"/>
    </g>
  </g>

  <!-- Account + cart on header right -->
  <g transform="translate(900,80)" stroke="#5a4a3a" stroke-width="1.7" fill="none" stroke-linecap="round" stroke-linejoin="round">
    <circle cx="10" cy="6" r="4"/>
    <path d="M2 19c0-5 4-7 8-7s8 2 8 7"/>
  </g>
  <text x="932" y="95" font-size="13.5" fill="#5a4a3a">Konto</text>

  <g filter="url(#softShadow)">
    <rect x="1010" y="74" width="150" height="32" rx="16" fill="#D99A1C"/>
  </g>
  <g transform="translate(1028,82)" stroke="#fff" stroke-width="1.7" fill="none" stroke-linecap="round" stroke-linejoin="round">
    <path d="M0 1h3l2 11h11l2-8H6"/>
    <circle cx="7" cy="16" r="1.3" fill="#fff" stroke="none"/>
    <circle cx="15" cy="16" r="1.3" fill="#fff" stroke="none"/>
  </g>
  <text x="1058" y="95" font-size="13.5" font-weight="600" fill="#fff">Warenkorb · 3</text>

  <!-- ===== Category nav ===== -->
  <rect x="0" y="130" width="1200" height="44" fill="#fcf6ea"/>
  <line x1="0" y1="174" x2="1200" y2="174" stroke="#eaddc4" stroke-width="1"/>
  <g font-size="14.5" fill="#5a4636">
    <text x="40" y="158" font-weight="600" fill="#A8761A">Gewürze</text>
    <text x="135" y="158" fill="#3a1f33" opacity="0.3">·</text>
    <text x="155" y="158">Tee</text>
    <text x="200" y="158" fill="#3a1f33" opacity="0.3">·</text>
    <text x="220" y="158">Süßwaren</text>
    <text x="320" y="158" fill="#3a1f33" opacity="0.3">·</text>
    <text x="340" y="158">Tiefkühl</text>
    <text x="423" y="158" fill="#3a1f33" opacity="0.3">·</text>
    <text x="443" y="158">Reis</text>
    <text x="490" y="158" fill="#3a1f33" opacity="0.3">·</text>
    <text x="510" y="158">Nüsse</text>
  </g>
  <!-- active underline -->
  <rect x="40" y="166" width="58" height="3" rx="1.5" fill="#D99A1C"/>

  <!-- ===== Hero banner ===== -->
  <g filter="url(#cardShadow)">
    <rect x="40" y="194" width="1120" height="258" rx="16" fill="url(#heroGrad)"/>
  </g>
  <!-- glow -->
  <ellipse cx="870" cy="320" rx="320" ry="220" fill="url(#glowGrad)"/>

  <!-- abstract flat-lay shapes on right -->
  <g opacity="0.95">
    <!-- saffron threads -->
    <g stroke="#D99A1C" stroke-width="2.4" fill="none" stroke-linecap="round">
      <path d="M760 250c8 6 6 16 14 22"/>
      <path d="M778 246c6 8 2 16 10 24"/>
      <path d="M796 252c4 9 -2 16 6 25"/>
    </g>
    <!-- rosebuds -->
    <circle cx="930" cy="245" r="26" fill="#8a3a55"/>
    <path d="M930 230c7 4 11 11 11 18 0 6-4 12-11 15-7-3-11-9-11-15 0-7 4-14 11-18z" fill="#a8485f"/>
    <path d="M930 236c4 3 6 7 6 11s-3 8-6 9c-3-1-6-5-6-9s2-8 6-11z" fill="#c9627a"/>
    <circle cx="1000" cy="300" r="20" fill="#7a3349"/>
    <path d="M1000 289c5 3 8 8 8 12 0 4-3 8-8 10-5-2-8-6-8-10 0-4 3-9 8-12z" fill="#9a4459"/>
    <!-- pistachios -->
    <g fill="#8fae5a">
      <ellipse cx="845" cy="360" rx="15" ry="11" transform="rotate(-18 845 360)"/>
      <ellipse cx="880" cy="385" rx="14" ry="10" transform="rotate(12 880 385)"/>
      <ellipse cx="960" cy="370" rx="15" ry="11" transform="rotate(28 960 370)"/>
    </g>
    <g fill="#c2b07a" opacity="0.9">
      <ellipse cx="845" cy="358" rx="9" ry="6" transform="rotate(-18 845 358)"/>
      <ellipse cx="880" cy="383" rx="8" ry="5.5" transform="rotate(12 880 383)"/>
      <ellipse cx="960" cy="368" rx="9" ry="6" transform="rotate(28 960 368)"/>
    </g>
    <!-- scattered saffron dots -->
    <circle cx="900" cy="335" r="4" fill="#D99A1C"/>
    <circle cx="1030" cy="360" r="3.5" fill="#e9b24a"/>
    <circle cx="820" cy="410" r="3.5" fill="#e9b24a"/>
    <circle cx="990" cy="420" r="4" fill="#D99A1C"/>
  </g>

  <!-- hero text -->
  <rect x="80" y="226" width="92" height="26" rx="13" fill="#D99A1C" opacity="0.18"/>
  <text x="96" y="244" font-size="12.5" font-weight="600" fill="#f0c878" letter-spacing="0.5">PREMIUM</text>
  <text x="80" y="305" font-family="Georgia, serif" font-size="36" font-weight="700" fill="#fdf3df">Echte persische</text>
  <text x="80" y="348" font-family="Georgia, serif" font-size="36" font-weight="700" fill="#fdf3df">Spezialitäten —</text>
  <text x="80" y="386" font-family="Georgia, serif" font-size="24" font-style="italic" fill="#e9b24a">frisch zu dir nach Hause</text>
  <g filter="url(#softShadow)">
    <rect x="80" y="404" width="186" height="42" rx="21" fill="#D99A1C"/>
  </g>
  <text x="173" y="430" font-size="14.5" font-weight="600" fill="#fff" text-anchor="middle">Jetzt entdecken</text>
  <rect x="278" y="404" width="150" height="42" rx="21" fill="none" stroke="#e9b24a" stroke-width="1.5"/>
  <text x="353" y="430" font-size="14.5" font-weight="600" fill="#e9b24a" text-anchor="middle">Bestseller</text>

  <!-- ===== Section heading ===== -->
  <text x="40" y="492" font-family="Georgia, serif" font-size="22" font-weight="700" fill="#3a1f33">Beliebte Produkte</text>
  <text x="1160" y="492" font-size="13.5" fill="#A8761A" font-weight="600" text-anchor="end">Alle ansehen →</text>

  <!-- ===== Product grid (4 cards) ===== -->
  <!-- card geometry: x positions 40, 327, 614, 901 ; width 259 -->
  <g>
    <!-- Card 1 -->
    <g filter="url(#cardShadow)">
      <rect x="40" y="510" width="259" height="312" rx="14" fill="#ffffff"/>
    </g>
    <rect x="40" y="510" width="259" height="150" rx="14" fill="url(#creamGrad)"/>
    <rect x="40" y="640" width="259" height="20" fill="#ffffff"/>
    <!-- saffron jar abstract -->
    <g transform="translate(140,548)">
      <rect x="14" y="14" width="50" height="64" rx="8" fill="#f6e6c2" stroke="#e2cd9a" stroke-width="1.5"/>
      <rect x="22" y="4" width="34" height="14" rx="4" fill="#D99A1C"/>
      <g stroke="#c2851f" stroke-width="1.8" fill="none" stroke-linecap="round" opacity="0.8">
        <path d="M28 34c4 4 2 10 6 14"/>
        <path d="M40 30c3 5 0 10 4 16"/>
        <path d="M50 36c2 5 -2 9 2 14"/>
      </g>
    </g>
    <!-- stock badge -->
    <rect x="52" y="522" width="118" height="22" rx="11" fill="#fbeede"/>
    <text x="63" y="537" font-size="11.5" font-weight="600" fill="#c0451f">Nur noch 4 auf Lager</text>
    <text x="58" y="690" font-size="14.5" font-weight="700" fill="#3a1f33">Safran Negin 5g</text>
    <g transform="translate(58,700)" fill="#D99A1C">
      <path d="M6 0l1.6 3.4 3.8.4-2.8 2.6.8 3.7L6 8.7 2.6 10.1l.8-3.7L.6 3.8l3.8-.4z"/>
      <path d="M20 0l1.6 3.4 3.8.4-2.8 2.6.8 3.7L20 8.7l-3.4 1.4.8-3.7-2.8-2.6 3.8-.4z"/>
      <path d="M34 0l1.6 3.4 3.8.4-2.8 2.6.8 3.7L34 8.7l-3.4 1.4.8-3.7-2.8-2.6 3.8-.4z"/>
      <path d="M48 0l1.6 3.4 3.8.4-2.8 2.6.8 3.7L48 8.7l-3.4 1.4.8-3.7-2.8-2.6 3.8-.4z"/>
      <path d="M62 0l1.6 3.4 3.8.4-2.8 2.6.8 3.7L62 8.7l-3.4 1.4.8-3.7-2.8-2.6 3.8-.4z" fill="#e6d2a8"/>
    </g>
    <text x="132" y="709" font-size="11.5" fill="#9a8a6a">(38)</text>
    <text x="58" y="742" font-size="20" font-weight="800" fill="#D99A1C">14,90 €</text>
    <rect x="58" y="758" width="223" height="42" rx="21" fill="#3a1f33"/>
    <g transform="translate(96,772)" stroke="#fff" stroke-width="1.6" fill="none" stroke-linecap="round" stroke-linejoin="round">
      <path d="M0 1h2.4l1.6 9h9l1.6-6.5H4.8"/>
      <circle cx="5.5" cy="13" r="1.1" fill="#fff" stroke="none"/>
      <circle cx="12" cy="13" r="1.1" fill="#fff" stroke="none"/>
    </g>
    <text x="120" y="784" font-size="13.5" font-weight="600" fill="#fff">In den Warenkorb</text>

    <!-- Card 2 -->
    <g filter="url(#cardShadow)">
      <rect x="327" y="510" width="259" height="312" rx="14" fill="#ffffff"/>
    </g>
    <rect x="327" y="510" width="259" height="150" rx="14" fill="url(#creamGrad2)"/>
    <rect x="327" y="640" width="259" height="20" fill="#ffffff"/>
    <!-- tea box abstract -->
    <g transform="translate(417,544)">
      <rect x="12" y="8" width="56" height="70" rx="8" fill="#e7ead3" stroke="#cdd2ad" stroke-width="1.5"/>
      <rect x="12" y="8" width="56" height="22" rx="8" fill="#7d9a4a"/>
      <circle cx="40" cy="50" r="13" fill="none" stroke="#7d9a4a" stroke-width="2"/>
      <path d="M34 50c2-4 10-4 12 0" stroke="#7d9a4a" stroke-width="2" fill="none" stroke-linecap="round"/>
    </g>
    <text x="345" y="690" font-size="14.5" font-weight="700" fill="#3a1f33">Persischer Tee Earl Grey</text>
    <text x="345" y="709" font-size="12.5" fill="#9a8a6a">450g · lose Blätter</text>
    <g transform="translate(345,716)" fill="#D99A1C">
      <path d="M6 0l1.6 3.4 3.8.4-2.8 2.6.8 3.7L6 8.7 2.6 10.1l.8-3.7L.6 3.8l3.8-.4z"/>
      <path d="M20 0l1.6 3.4 3.8.4-2.8 2.6.8 3.7L20 8.7l-3.4 1.4.8-3.7-2.8-2.6 3.8-.4z"/>
      <path d="M34 0l1.6 3.4 3.8.4-2.8 2.6.8 3.7L34 8.7l-3.4 1.4.8-3.7-2.8-2.6 3.8-.4z"/>
      <path d="M48 0l1.6 3.4 3.8.4-2.8 2.6.8 3.7L48 8.7l-3.4 1.4.8-3.7-2.8-2.6 3.8-.4z"/>
      <path d="M62 0l1.6 3.4 3.8.4-2.8 2.6.8 3.7L62 8.7l-3.4 1.4.8-3.7-2.8-2.6 3.8-.4z"/>
    </g>
    <text x="419" y="725" font-size="11.5" fill="#9a8a6a">(124)</text>
    <text x="345" y="750" font-size="20" font-weight="800" fill="#D99A1C">8,50 €</text>
    <rect x="345" y="758" width="223" height="42" rx="21" fill="#3a1f33"/>
    <g transform="translate(383,772)" stroke="#fff" stroke-width="1.6" fill="none" stroke-linecap="round" stroke-linejoin="round">
      <path d="M0 1h2.4l1.6 9h9l1.6-6.5H4.8"/>
      <circle cx="5.5" cy="13" r="1.1" fill="#fff" stroke="none"/>
      <circle cx="12" cy="13" r="1.1" fill="#fff" stroke="none"/>
    </g>
    <text x="407" y="784" font-size="13.5" font-weight="600" fill="#fff">In den Warenkorb</text>

    <!-- Card 3 -->
    <g filter="url(#cardShadow)">
      <rect x="614" y="510" width="259" height="312" rx="14" fill="#ffffff"/>
    </g>
    <rect x="614" y="510" width="259" height="150" rx="14" fill="url(#creamGrad)"/>
    <rect x="614" y="640" width="259" height="20" fill="#ffffff"/>
    <!-- gaz / nougat abstract -->
    <g transform="translate(700,548)">
      <rect x="8" y="30" width="68" height="40" rx="6" fill="#f3e7c8" stroke="#e0cd9c" stroke-width="1.5"/>
      <path d="M8 40c10-6 20-4 30 0s28-2 38 0v6H8z" fill="#f7ecd2"/>
      <circle cx="22" cy="50" r="3.5" fill="#8fae5a"/>
      <circle cx="40" cy="46" r="3.5" fill="#8fae5a"/>
      <circle cx="56" cy="52" r="3.5" fill="#8fae5a"/>
      <circle cx="66" cy="46" r="3" fill="#8fae5a"/>
      <circle cx="32" cy="56" r="3" fill="#c98a3a"/>
    </g>
    <rect x="626" y="522" width="74" height="22" rx="11" fill="#eef4e2"/>
    <text x="637" y="537" font-size="11.5" font-weight="600" fill="#5d7a32">Beliebt</text>
    <text x="632" y="690" font-size="14.5" font-weight="700" fill="#3a1f33">Gaz Pistazien-Nougat</text>
    <text x="632" y="709" font-size="12.5" fill="#9a8a6a">250g · Isfahan</text>
    <g transform="translate(632,716)" fill="#D99A1C">
      <path d="M6 0l1.6 3.4 3.8.4-2.8 2.6.8 3.7L6 8.7 2.6 10.1l.8-3.7L.6 3.8l3.8-.4z"/>
      <path d="M20 0l1.6 3.4 3.8.4-2.8 2.6.8 3.7L20 8.7l-3.4 1.4.8-3.7-2.8-2.6 3.8-.4z"/>
      <path d="M34 0l1.6 3.4 3.8.4-2.8 2.6.8 3.7L34 8.7l-3.4 1.4.8-3.7-2.8-2.6 3.8-.4z"/>
      <path d="M48 0l1.6 3.4 3.8.4-2.8 2.6.8 3.7L48 8.7l-3.4 1.4.8-3.7-2.8-2.6 3.8-.4z"/>
      <path d="M62 0l1.6 3.4 3.8.4-2.8 2.6.8 3.7L62 8.7l-3.4 1.4.8-3.7-2.8-2.6 3.8-.4z" fill="#e6d2a8"/>
    </g>
    <text x="706" y="725" font-size="11.5" fill="#9a8a6a">(67)</text>
    <text x="632" y="750" font-size="20" font-weight="800" fill="#D99A1C">9,90 €</text>
    <rect x="632" y="758" width="223" height="42" rx="21" fill="#3a1f33"/>
    <g transform="translate(670,772)" stroke="#fff" stroke-width="1.6" fill="none" stroke-linecap="round" stroke-linejoin="round">
      <path d="M0 1h2.4l1.6 9h9l1.6-6.5H4.8"/>
      <circle cx="5.5" cy="13" r="1.1" fill="#fff" stroke="none"/>
      <circle cx="12" cy="13" r="1.1" fill="#fff" stroke="none"/>
    </g>
    <text x="694" y="784" font-size="13.5" font-weight="600" fill="#fff">In den Warenkorb</text>

    <!-- Card 4 -->
    <g filter="url(#cardShadow)">
      <rect x="901" y="510" width="259" height="312" rx="14" fill="#ffffff"/>
    </g>
    <rect x="901" y="510" width="259" height="150" rx="14" fill="url(#creamGrad2)"/>
    <rect x="901" y="640" width="259" height="20" fill="#ffffff"/>
    <!-- rice sack abstract -->
    <g transform="translate(995,540)">
      <path d="M8 24c0-6 8-10 22-10s22 4 22 10v44c0 6-44 6-44 0z" fill="#f4ecd9" stroke="#ddd0ad" stroke-width="1.5"/>
      <path d="M18 14c4-5 20-5 24 0l-4 8H22z" fill="#e7dcbf"/>
      <rect x="18" y="40" width="24" height="20" rx="3" fill="#fff" opacity="0.7"/>
      <text x="30" y="54" font-size="9" font-weight="700" fill="#A8761A" text-anchor="middle">10kg</text>
    </g>
    <text x="919" y="690" font-size="14.5" font-weight="700" fill="#3a1f33">Sadri Reis 10kg</text>
    <text x="919" y="709" font-size="12.5" fill="#9a8a6a">Premium Langkorn</text>
    <g transform="translate(919,716)" fill="#D99A1C">
      <path d="M6 0l1.6 3.4 3.8.4-2.8 2.6.8 3.7L6 8.7 2.6 10.1l.8-3.7L.6 3.8l3.8-.4z"/>
      <path d="M20 0l1.6 3.4 3.8.4-2.8 2.6.8 3.7L20 8.7l-3.4 1.4.8-3.7-2.8-2.6 3.8-.4z"/>
      <path d="M34 0l1.6 3.4 3.8.4-2.8 2.6.8 3.7L34 8.7l-3.4 1.4.8-3.7-2.8-2.6 3.8-.4z"/>
      <path d="M48 0l1.6 3.4 3.8.4-2.8 2.6.8 3.7L48 8.7l-3.4 1.4.8-3.7-2.8-2.6 3.8-.4z"/>
      <path d="M62 0l1.6 3.4 3.8.4-2.8 2.6.8 3.7L62 8.7l-3.4 1.4.8-3.7-2.8-2.6 3.8-.4z" fill="#e6d2a8"/>
    </g>
    <text x="993" y="725" font-size="11.5" fill="#9a8a6a">(52)</text>
    <text x="919" y="750" font-size="20" font-weight="800" fill="#D99A1C">32,00 €</text>
    <rect x="919" y="758" width="223" height="42" rx="21" fill="#3a1f33"/>
    <g transform="translate(957,772)" stroke="#fff" stroke-width="1.6" fill="none" stroke-linecap="round" stroke-linejoin="round">
      <path d="M0 1h2.4l1.6 9h9l1.6-6.5H4.8"/>
      <circle cx="5.5" cy="13" r="1.1" fill="#fff" stroke="none"/>
      <circle cx="12" cy="13" r="1.1" fill="#fff" stroke="none"/>
    </g>
    <text x="981" y="784" font-size="13.5" font-weight="600" fill="#fff">In den Warenkorb</text>
  </g>

  <!-- ===== Trust strip ===== -->
  <rect x="0" y="842" width="1200" height="18" fill="#fcf8f0"/>
  <g transform="translate(0,838)">
    <!-- placed above footer region; trust strip drawn within visible band -->
  </g>

  <!-- Trust strip band (between grid and footer not enough room) -> place compact at bottom -->
  <!-- Footer -->
</svg>